<svg width="36" height="36" viewBox="0 0 36 36" fill="none" xmlns="http://www.w3.org/2000/svg">
<path d="M18 36C27.9411 36 36 27.9411 36 18C36 8.05887 27.9411 0 18 0C8.05887 0 0 8.05887 0 18C0 27.9411 8.05887 36 18 36Z" fill="url(#paint0_linear_38_150)"/>
<path fill-rule="evenodd" clip-rule="evenodd" d="M8.14782 17.81C13.3952 15.5238 16.8943 14.0166 18.645 13.2884C23.6438 11.2092 24.6825 10.8481 25.3595 10.8361C25.5084 10.8335 25.8414 10.8704 26.057 11.0454C26.2391 11.1932 26.2892 11.3928 26.3132 11.5329C26.3372 11.673 26.367 11.9921 26.3433 12.2415C26.0724 15.0877 24.9003 21.9947 24.304 25.1825C24.0517 26.5314 23.5548 26.9837 23.0739 27.028C22.0286 27.1241 21.2348 26.3372 20.2224 25.6735C18.6382 24.635 17.7432 23.9886 16.2054 22.9752C14.4282 21.8041 15.5803 21.1604 16.5931 20.1085C16.8582 19.8332 21.4637 15.644 21.5529 15.264C21.564 15.2165 21.5744 15.0393 21.4691 14.9458C21.3639 14.8522 21.2085 14.8842 21.0964 14.9097C20.9376 14.9457 18.4067 16.6185 13.5039 19.928C12.7856 20.4213 12.1349 20.6616 11.5519 20.6491C10.9092 20.6352 9.67294 20.2857 8.75389 19.9869C7.62664 19.6205 6.73072 19.4268 6.80873 18.8045C6.84937 18.4803 7.29573 18.1488 8.14782 17.81Z" fill="white"/>
<defs>
<linearGradient id="paint0_linear_38_150" x1="18" y1="0" x2="18" y2="35.733" gradientUnits="userSpaceOnUse">
<stop stop-color="#2AABEE"/>
<stop offset="1" stop-color="#229ED9"/>
</linearGradient>
</defs>
</svg>
