<svg width="20" height="21" viewBox="0 0 20 21" fill="none" xmlns="http://www.w3.org/2000/svg">
<circle cx="10" cy="10.6523" r="10" fill="#DB2424"/>
<path d="M7.444 14.6523V13.5483C8.46 12.5483 9.128 11.8643 9.448 11.4963C10.44 10.3603 10.936 9.40428 10.936 8.62828C10.936 8.28428 10.844 8.01628 10.66 7.82428C10.476 7.63228 10.212 7.53628 9.868 7.53628C9.572 7.53628 9.316 7.63628 9.1 7.83628C8.892 8.02828 8.744 8.30428 8.656 8.66428L7.504 8.14828C7.616 7.53228 7.896 7.04828 8.344 6.69628C8.8 6.33628 9.36 6.15628 10.024 6.15628C10.776 6.15628 11.36 6.37228 11.776 6.80428C12.192 7.23628 12.4 7.75228 12.4 8.35228C12.4 8.79228 12.308 9.25228 12.124 9.73228C11.94 10.2043 11.728 10.6163 11.488 10.9683C11.248 11.3203 10.956 11.6803 10.612 12.0483C10.276 12.4163 10.012 12.6883 9.82 12.8643C9.636 13.0323 9.44 13.2003 9.232 13.3683H12.724V14.6523H7.444Z" fill="white"/>
</svg>
